<svg width="463" height="288" viewBox="0 0 463 288" fill="none" xmlns="http://www.w3.org/2000/svg">
<g clip-path="url(#clip0_30_1089)">
<path d="M24.1566 287.356C24.1256 287.215 21.1301 273.083 27.2478 261.345C33.3655 249.608 46.4243 244.432 46.5555 244.381L47.1523 244.149L47.2933 244.793C47.3243 244.934 50.3198 259.066 44.2021 270.804C38.0847 282.541 25.0256 287.717 24.8944 287.768L24.2973 288L24.1566 287.356ZM46.3338 245.719C43.718 246.884 33.3943 251.978 28.2274 261.892C23.0599 271.806 24.619 283.53 25.1161 286.43C27.7308 285.268 38.0505 280.181 43.2225 270.257C48.3897 260.344 46.8312 248.62 46.3338 245.719V245.719Z" fill="#F1F1F1"/>
<path d="M39.5271 266.686C28.5332 273.529 24.2991 287.121 24.2991 287.121C24.2991 287.121 37.8896 289.619 48.8834 282.776C59.8773 275.933 64.1114 262.341 64.1114 262.341C64.1114 262.341 50.5209 259.843 39.5271 266.686Z" fill="#F1F1F1"/>
<path d="M206.015 156.988C206.183 156.093 206.158 155.17 205.944 154.286C205.73 153.401 205.331 152.576 204.775 151.868C204.219 151.16 203.52 150.587 202.727 150.189C201.934 149.791 201.066 149.578 200.185 149.565L195.094 136.319L186.559 137.556L194.002 156.157C194.078 157.691 194.696 159.142 195.737 160.236C196.778 161.33 198.171 161.991 199.652 162.093C201.133 162.195 202.598 161.732 203.771 160.791C204.944 159.85 205.742 158.497 206.015 156.988Z" fill="#9F616A"/>
<path d="M190.291 152.334L187.646 145.809L171.166 113.355L172.062 53.3022L172.234 53.2786C182.779 51.8372 189.914 102.105 190.213 104.246L200.625 141.088L203.104 149.209L190.291 152.334Z" fill="#696CFF"/>
<path d="M164.969 278.964L172.981 278.964L176.793 246.989L164.967 246.99L164.969 278.964Z" fill="#9F616A"/>
<path d="M162.925 276.258L178.704 276.257H178.705C181.372 276.257 183.93 277.353 185.816 279.304C187.701 281.255 188.761 283.901 188.761 286.661V286.999L162.925 287L162.925 276.258Z" fill="#2F2E41"/>
<path d="M91.2947 266.334L97.8691 271.074L118.667 247.096L108.964 240.1L91.2947 266.334Z" fill="#9F616A"/>
<path d="M91.1137 262.905L104.06 272.238L104.061 272.239C106.249 273.816 107.741 276.228 108.21 278.945C108.679 281.661 108.086 284.459 106.562 286.722L106.375 287L85.1776 271.718L91.1137 262.905Z" fill="#2F2E41"/>
<path d="M160.565 271.449L160.219 211.466L155.177 173.75L145.777 206.918L145.759 206.945L111.696 258.107L98.4423 251.159L98.5149 250.98C99.3249 248.987 118.411 202.174 123.542 202.174C123.99 202.207 124.438 202.126 124.85 201.939C125.261 201.752 125.622 201.464 125.902 201.101C127.408 199.021 126.181 194.607 126.169 194.562C124.7 188.262 128.393 186.117 129.128 185.758L131.106 143.512L131.311 143.526L184.938 147.418L182.688 200.237L177.849 269.442L177.682 269.461L160.565 271.449Z" fill="#2F2E41"/>
<path d="M185.757 156.779L185.525 156.76L127.851 151.95L127.994 132.207L130.816 80.6583L130.832 80.6225L142.328 54.8023L150.477 50.9847L162.367 50.3374L162.396 50.3449L173.246 53.1261L184.533 136.954L185.757 156.779Z" fill="#696CFF"/>
<path d="M164.23 43.7202C171.589 39.5584 174.293 30.013 170.27 22.3999C166.248 14.7868 157.021 11.9888 149.663 16.1506C142.304 20.3123 139.599 29.8577 143.622 37.4708C147.645 45.084 156.871 47.8819 164.23 43.7202Z" fill="#9F616A"/>
<path d="M141.675 33.879V27.758C141.675 27.758 136.904 21.9444 142.152 20.4799C142.152 20.4799 143.583 5.83524 155.989 12.6694C155.989 12.6694 173.165 9.74049 171.257 19.9917C171.257 19.9917 175.551 17.3155 174.119 24.1497L171.351 35.1583C171.351 35.1583 172.688 27.8863 168.394 26.91L166.008 25.4455C166.008 25.4455 159.328 32.2797 149.309 23.981C149.309 23.981 145.015 22.9207 145.492 27.3141C145.969 31.7075 141.675 33.879 141.675 33.879Z" fill="#2F2E41"/>
<path d="M155.365 142.036C155.375 141.124 155.191 140.221 154.827 139.391C154.463 138.56 153.927 137.822 153.257 137.229C152.588 136.636 151.8 136.202 150.951 135.958C150.102 135.714 149.211 135.665 148.342 135.815L141.036 123.73L132.854 126.532L143.403 143.449C143.744 144.944 144.603 146.256 145.817 147.139C147.032 148.022 148.517 148.414 149.991 148.239C151.465 148.065 152.827 147.337 153.817 146.194C154.808 145.051 155.359 143.571 155.365 142.036Z" fill="#9F616A"/>
<path d="M136.495 138.226L123.278 110.463L123.289 110.395C123.343 110.088 128.663 79.5243 132.732 68.2901C136.827 56.9846 142.433 54.7148 142.669 54.6237L142.788 54.5781L147.814 59.5657L140.851 107.643L148.356 130.83L136.495 138.226Z" fill="#696CFF"/>
<path d="M463 0H437.408V26.4771H463V0Z" fill="#F1F1F1"/>
<path d="M262.713 103.031H237.121V129.508H262.713V103.031Z" fill="#F1F1F1"/>
<path d="M251.485 117.905H453.817V11.9342H251.485V117.905Z" fill="white"/>
<path d="M455.486 119.632H249.816V10.2074H455.486V119.632ZM253.154 116.179H452.148V13.6609H253.154V116.179Z" fill="#E5E5E5"/>
<path d="M431.443 49.1069H275.771V54.4479H431.443V49.1069Z" fill="#E5E5E5"/>
<path d="M431.443 62.0594H275.771V67.4004H431.443V62.0594Z" fill="#E5E5E5"/>
<path d="M431.442 81.1843H402.512V85.8194H431.442V81.1843Z" fill="#696CFF"/>
<path d="M212.527 287.977H0.556353C0.408799 287.977 0.267288 287.916 0.162951 287.808C0.0586151 287.7 0 287.554 0 287.401C0 287.248 0.0586151 287.102 0.162951 286.994C0.267288 286.886 0.408799 286.825 0.556353 286.825H212.527C212.674 286.825 212.816 286.886 212.92 286.994C213.024 287.102 213.083 287.248 213.083 287.401C213.083 287.554 213.024 287.7 212.92 287.808C212.816 287.916 212.674 287.977 212.527 287.977Z" fill="#CBCBCB"/>
</g>
<defs>
<clipPath id="clip0_30_1089">
<rect width="463" height="288" fill="white"/>
</clipPath>
</defs>
</svg>
