<svg width="173" height="41" viewBox="0 0 173 41" fill="none" xmlns="http://www.w3.org/2000/svg">
<path d="M51.9473 30V15.54H56.1873L59.4973 25.85L62.8373 15.54H67.0673V30H64.1173V18.94L60.6373 30H58.3473L54.8873 18.99V30H51.9473ZM71.5852 25.5C71.5785 26.0267 71.6619 26.4867 71.8352 26.88C72.0085 27.2667 72.2585 27.5667 72.5852 27.78C72.9185 27.9867 73.3185 28.09 73.7852 28.09C74.2852 28.09 74.7219 27.9833 75.0952 27.77C75.4752 27.5567 75.7385 27.2067 75.8852 26.72H78.5152C78.4019 27.4533 78.1085 28.08 77.6352 28.6C77.1685 29.12 76.6019 29.5167 75.9352 29.79C75.2685 30.0633 74.5752 30.2 73.8552 30.2C72.8352 30.2 71.9352 29.9867 71.1552 29.56C70.3819 29.1267 69.7785 28.5167 69.3452 27.73C68.9119 26.9433 68.6952 26.0167 68.6952 24.95C68.6952 23.9167 68.8919 22.9867 69.2852 22.16C69.6785 21.3267 70.2485 20.67 70.9952 20.19C71.7485 19.7033 72.6519 19.46 73.7052 19.46C74.7585 19.46 75.6419 19.6833 76.3552 20.13C77.0752 20.57 77.6152 21.1867 77.9752 21.98C78.3419 22.7667 78.5252 23.6767 78.5252 24.71V25.5H71.5852ZM71.5752 23.76H75.7952C75.7952 23.3467 75.7185 22.9667 75.5652 22.62C75.4119 22.2733 75.1785 22 74.8652 21.8C74.5585 21.6 74.1719 21.5 73.7052 21.5C73.2519 21.5 72.8652 21.61 72.5452 21.83C72.2319 22.0433 71.9919 22.3233 71.8252 22.67C71.6585 23.0167 71.5752 23.38 71.5752 23.76ZM84.7276 33.42C82.8876 33.42 81.4876 33.1867 80.5276 32.72C79.5743 32.2533 79.0976 31.64 79.0976 30.88C79.0976 30.5267 79.191 30.23 79.3776 29.99C79.5643 29.75 79.781 29.56 80.0276 29.42C80.281 29.2733 80.511 29.1633 80.7176 29.09C80.931 29.01 81.061 28.9567 81.1076 28.93C81.001 28.87 80.8476 28.7833 80.6476 28.67C80.4476 28.55 80.261 28.39 80.0876 28.19C79.921 27.9833 79.8376 27.7167 79.8376 27.39C79.8376 27.0233 80.011 26.6833 80.3576 26.37C80.711 26.0567 81.2443 25.84 81.9576 25.72C81.2776 25.4 80.761 24.9667 80.4076 24.42C80.0543 23.8733 79.8776 23.3133 79.8776 22.74C79.8776 22.06 80.091 21.4767 80.5176 20.99C80.9443 20.5033 81.5243 20.1333 82.2576 19.88C82.9976 19.6267 83.8343 19.5 84.7676 19.5C85.481 19.5 86.0643 19.5767 86.5176 19.73C86.971 19.8767 87.391 20.07 87.7776 20.31C87.931 20.25 88.1343 20.1733 88.3876 20.08C88.641 19.98 88.9143 19.8733 89.2076 19.76C89.501 19.64 89.7876 19.5233 90.0676 19.41C90.3476 19.29 90.5976 19.1833 90.8176 19.09L90.8076 21.35L89.0176 21.64C89.091 21.82 89.1476 22.0133 89.1876 22.22C89.2276 22.4267 89.2476 22.5967 89.2476 22.73C89.2476 23.33 89.071 23.89 88.7176 24.41C88.371 24.93 87.8476 25.35 87.1476 25.67C86.4543 25.99 85.5943 26.15 84.5676 26.15C84.441 26.15 84.271 26.1467 84.0576 26.14C83.851 26.1333 83.681 26.1233 83.5476 26.11C83.1543 26.13 82.8843 26.18 82.7376 26.26C82.591 26.34 82.5176 26.4333 82.5176 26.54C82.5176 26.7 82.6676 26.8067 82.9676 26.86C83.2676 26.9067 83.721 26.95 84.3276 26.99C84.541 27.0033 84.8376 27.02 85.2176 27.04C85.5976 27.06 86.0176 27.0867 86.4776 27.12C87.7443 27.2067 88.6876 27.52 89.3076 28.06C89.9343 28.5933 90.2476 29.2667 90.2476 30.08C90.2476 31.0467 89.7876 31.8433 88.8676 32.47C87.9543 33.1033 86.5743 33.42 84.7276 33.42ZM85.1976 31.79C86.011 31.79 86.591 31.69 86.9376 31.49C87.2843 31.29 87.4576 31.0033 87.4576 30.63C87.4576 30.3167 87.3243 30.0633 87.0576 29.87C86.791 29.67 86.401 29.5533 85.8876 29.52L83.5176 29.36C83.211 29.3467 82.9376 29.3933 82.6976 29.5C82.4643 29.6067 82.281 29.7533 82.1476 29.94C82.021 30.1267 81.9576 30.3267 81.9576 30.54C81.9576 30.9733 82.221 31.29 82.7476 31.49C83.2743 31.69 84.091 31.79 85.1976 31.79ZM84.6476 24.52C85.201 24.52 85.6443 24.37 85.9776 24.07C86.3176 23.7633 86.4876 23.35 86.4876 22.83C86.4876 22.29 86.3176 21.8567 85.9776 21.53C85.6443 21.2033 85.201 21.04 84.6476 21.04C84.101 21.04 83.6543 21.2033 83.3076 21.53C82.9676 21.8567 82.7976 22.29 82.7976 22.83C82.7976 23.3433 82.961 23.7533 83.2876 24.06C83.621 24.3667 84.0743 24.52 84.6476 24.52ZM94.7252 30.2C94.0652 30.2 93.4719 30.0767 92.9452 29.83C92.4186 29.5833 92.0019 29.2267 91.6952 28.76C91.3886 28.2867 91.2352 27.7133 91.2352 27.04C91.2352 25.9067 91.6586 25.0467 92.5052 24.46C93.3519 23.8667 94.6886 23.56 96.5152 23.54L97.8052 23.52V22.9C97.8052 22.4267 97.6652 22.0633 97.3852 21.81C97.1119 21.55 96.6852 21.4233 96.1052 21.43C95.6786 21.4367 95.2719 21.5367 94.8852 21.73C94.5052 21.9233 94.2452 22.26 94.1052 22.74H91.6752C91.7152 21.9933 91.9319 21.38 92.3252 20.9C92.7186 20.4133 93.2519 20.0533 93.9252 19.82C94.6052 19.58 95.3752 19.46 96.2352 19.46C97.2952 19.46 98.1452 19.5933 98.7852 19.86C99.4252 20.12 99.8886 20.4967 100.175 20.99C100.462 21.4767 100.605 22.0567 100.605 22.73V30H98.1652L97.9252 28.22C97.5719 28.9667 97.1286 29.4833 96.5952 29.77C96.0686 30.0567 95.4452 30.2 94.7252 30.2ZM95.7052 28.28C95.9719 28.28 96.2286 28.2333 96.4752 28.14C96.7286 28.04 96.9519 27.91 97.1452 27.75C97.3452 27.5833 97.5052 27.3967 97.6252 27.19C97.7452 26.9833 97.8052 26.77 97.8052 26.55V25.02L96.7552 25.04C96.2686 25.0467 95.8152 25.1067 95.3952 25.22C94.9752 25.3267 94.6352 25.5033 94.3752 25.75C94.1219 25.9967 93.9952 26.33 93.9952 26.75C93.9952 27.23 94.1619 27.6067 94.4952 27.88C94.8286 28.1467 95.2319 28.28 95.7052 28.28ZM106.842 30V15.54H111.082L114.392 25.85L117.732 15.54H121.962V30H119.012V18.94L115.532 30H113.242L109.782 18.99V30H106.842ZM126.48 25.5C126.474 26.0267 126.557 26.4867 126.73 26.88C126.904 27.2667 127.154 27.5667 127.48 27.78C127.814 27.9867 128.214 28.09 128.68 28.09C129.18 28.09 129.617 27.9833 129.99 27.77C130.37 27.5567 130.634 27.2067 130.78 26.72H133.41C133.297 27.4533 133.004 28.08 132.53 28.6C132.064 29.12 131.497 29.5167 130.83 29.79C130.164 30.0633 129.47 30.2 128.75 30.2C127.73 30.2 126.83 29.9867 126.05 29.56C125.277 29.1267 124.674 28.5167 124.24 27.73C123.807 26.9433 123.59 26.0167 123.59 24.95C123.59 23.9167 123.787 22.9867 124.18 22.16C124.574 21.3267 125.144 20.67 125.89 20.19C126.644 19.7033 127.547 19.46 128.6 19.46C129.654 19.46 130.537 19.6833 131.25 20.13C131.97 20.57 132.51 21.1867 132.87 21.98C133.237 22.7667 133.42 23.6767 133.42 24.71V25.5H126.48ZM126.47 23.76H130.69C130.69 23.3467 130.614 22.9667 130.46 22.62C130.307 22.2733 130.074 22 129.76 21.8C129.454 21.6 129.067 21.5 128.6 21.5C128.147 21.5 127.76 21.61 127.44 21.83C127.127 22.0433 126.887 22.3233 126.72 22.67C126.554 23.0167 126.47 23.38 126.47 23.76ZM138.809 30.2C137.423 30.2 136.343 29.7233 135.569 28.77C134.796 27.81 134.409 26.4767 134.409 24.77C134.409 23.69 134.566 22.7533 134.879 21.96C135.193 21.1667 135.656 20.5533 136.269 20.12C136.883 19.68 137.633 19.46 138.519 19.46C138.893 19.46 139.239 19.5033 139.559 19.59C139.886 19.67 140.183 19.7833 140.449 19.93C140.716 20.0767 140.949 20.2467 141.149 20.44C141.349 20.6333 141.513 20.84 141.639 21.06V15.14H144.569V30H142.449L142.119 27.88C142.026 28.1667 141.896 28.4467 141.729 28.72C141.563 28.9933 141.349 29.2433 141.089 29.47C140.829 29.69 140.509 29.8667 140.129 30C139.756 30.1333 139.316 30.2 138.809 30.2ZM139.449 28.1C140.183 28.1 140.729 27.8433 141.089 27.33C141.456 26.8167 141.639 25.95 141.639 24.73C141.633 24.0233 141.549 23.4367 141.389 22.97C141.229 22.5033 140.989 22.1567 140.669 21.93C140.356 21.6967 139.956 21.58 139.469 21.58C138.836 21.58 138.309 21.8233 137.889 22.31C137.469 22.79 137.259 23.5967 137.259 24.73C137.259 25.8833 137.456 26.7333 137.849 27.28C138.243 27.8267 138.776 28.1 139.449 28.1ZM149.599 19.66V30H146.809V19.66H149.599ZM149.629 15.55V18.18H146.789V15.55H149.629ZM154.767 30.2C154.107 30.2 153.514 30.0767 152.987 29.83C152.461 29.5833 152.044 29.2267 151.737 28.76C151.431 28.2867 151.277 27.7133 151.277 27.04C151.277 25.9067 151.701 25.0467 152.547 24.46C153.394 23.8667 154.731 23.56 156.557 23.54L157.847 23.52V22.9C157.847 22.4267 157.707 22.0633 157.427 21.81C157.154 21.55 156.727 21.4233 156.147 21.43C155.721 21.4367 155.314 21.5367 154.927 21.73C154.547 21.9233 154.287 22.26 154.147 22.74H151.717C151.757 21.9933 151.974 21.38 152.367 20.9C152.761 20.4133 153.294 20.0533 153.967 19.82C154.647 19.58 155.417 19.46 156.277 19.46C157.337 19.46 158.187 19.5933 158.827 19.86C159.467 20.12 159.931 20.4967 160.217 20.99C160.504 21.4767 160.647 22.0567 160.647 22.73V30H158.207L157.967 28.22C157.614 28.9667 157.171 29.4833 156.637 29.77C156.111 30.0567 155.487 30.2 154.767 30.2ZM155.747 28.28C156.014 28.28 156.271 28.2333 156.517 28.14C156.771 28.04 156.994 27.91 157.187 27.75C157.387 27.5833 157.547 27.3967 157.667 27.19C157.787 26.9833 157.847 26.77 157.847 26.55V25.02L156.797 25.04C156.311 25.0467 155.857 25.1067 155.437 25.22C155.017 25.3267 154.677 25.5033 154.417 25.75C154.164 25.9967 154.037 26.33 154.037 26.75C154.037 27.23 154.204 27.6067 154.537 27.88C154.871 28.1467 155.274 28.28 155.747 28.28Z" fill="#566A7F"/>
<path opacity="0.7" d="M15.9919 12.143V37.6073C15.9919 37.9681 15.9017 38.2777 15.7189 38.5288C15.5385 38.7823 15.2728 38.9091 14.9243 38.9091C14.6781 38.9091 14.4392 38.8506 14.2052 38.736L4.08469 33.6777C3.78 33.5339 3.52163 33.2901 3.312 32.9513C3.10481 32.61 3 32.2736 3 31.9421V7.19446C3 6.90437 3.07312 6.65817 3.21694 6.45584C3.36319 6.25351 3.57281 6.15112 3.84825 6.15112C4.05056 6.15112 4.36988 6.26082 4.80619 6.47777L15.9285 12.0358C15.9699 12.0772 15.9919 12.1138 15.9919 12.143V12.143Z" fill="#696CFF"/>
<path opacity="0.3" d="M17.3861 14.337L29.0081 33.1342L17.3861 27.3617V14.337ZM42 14.727V37.6073C42 37.9681 41.8976 38.2631 41.6953 38.4874C41.493 38.7116 41.2176 38.8238 40.869 38.8238C40.5204 38.8238 40.1792 38.7287 39.8452 38.541L30.2464 33.7655L42 14.727Z" fill="#696CFF"/>
<path opacity="0.7" d="M41.9342 12.1211C41.9342 12.165 40.0744 15.1999 36.3523 21.2284C32.6303 27.2568 30.4511 30.7842 29.8125 31.8105L21.3251 18.0472L28.3768 6.60699C28.623 6.20233 29.0008 6 29.5078 6C29.7101 6 29.9003 6.04388 30.0733 6.1292L41.8465 11.9895C41.905 12.0211 41.9342 12.0626 41.9342 12.1211V12.1211Z" fill="#696CFF"/>
</svg>
